<svg xmlns="http://www.w3.org/2000/svg" xmlns:xlink="http://www.w3.org/1999/xlink" zoomAndPan="magnify" preserveAspectRatio="xMidYMid meet" version="1.0" viewBox="19.2 152.84 334.77 72.17"><defs><g/></defs><g fill="#ffffff" fill-opacity="1"><g transform="translate(19.200366, 207.438502)"><g><path d="M 52.796875 -35.21875 L 70.4375 -52.796875 L 70.4375 0 L 17.578125 0 L 0 -17.578125 L 52.796875 -17.578125 Z M 28.8125 -21.125 L 20 -30.3125 L 38.015625 -30.3125 C 36.316406 -30.3125 34.769531 -30.722656 33.375 -31.546875 C 31.988281 -32.378906 30.878906 -33.488281 30.046875 -34.875 C 29.222656 -36.257812 28.8125 -37.800781 28.8125 -39.5 L 38.015625 -48.625 L 38.015625 -39.5 L 40.125 -39.5 C 41.820312 -39.5 43.351562 -39.070312 44.71875 -38.21875 C 46.082031 -37.375 47.1875 -36.269531 48.03125 -34.90625 C 48.882812 -33.539062 49.3125 -32.007812 49.3125 -30.3125 L 49.3125 -21.125 Z M 28.8125 -21.125 "/></g></g></g><g fill="#ffffff" fill-opacity="1"><g transform="translate(91.433603, 207.438502)"><g><path d="M 1.796875 -17.578125 L 19.375 -35.21875 L 19.375 0 L 1.796875 17.578125 Z M 1.796875 -17.578125 "/></g></g></g><g fill="#ffffff" fill-opacity="1"><g transform="translate(112.612908, 207.438502)"><g><path d="M 1.796875 -35.21875 L 19.375 -52.859375 L 19.375 0 L 1.796875 0 Z M 1.796875 -35.21875 "/></g></g></g><g fill="#ffffff" fill-opacity="1"><g transform="translate(131.991038, 207.438502)"><g><path d="M 37.328125 -17.578125 L 38.75 -17.578125 L 38.75 0 L 35.21875 0 C 33.601562 2.15625 31.570312 3.863281 29.125 5.125 C 26.6875 6.382812 24.035156 7.015625 21.171875 7.015625 C 18.273438 7.015625 15.601562 6.382812 13.15625 5.125 C 10.71875 3.863281 8.691406 2.15625 7.078125 0 L -0.5625 0 C -1.632812 0 -2.53125 -0.359375 -3.25 -1.078125 C -3.976562 -1.804688 -4.34375 -2.707031 -4.34375 -3.78125 L -4.34375 -13.78125 C -4.34375 -14.863281 -3.976562 -15.765625 -3.25 -16.484375 C -2.53125 -17.210938 -1.632812 -17.578125 -0.5625 -17.578125 L 4.96875 -17.578125 C 5.875 -19.691406 7.132812 -21.546875 8.75 -23.140625 C 10.375 -24.734375 12.25 -25.972656 14.375 -26.859375 C 16.507812 -27.753906 18.773438 -28.203125 21.171875 -28.203125 C 23.578125 -28.203125 25.832031 -27.753906 27.9375 -26.859375 C 30.050781 -25.972656 31.914062 -24.734375 33.53125 -23.140625 C 35.15625 -21.546875 36.421875 -19.691406 37.328125 -17.578125 Z M 37.328125 -17.578125 "/></g></g></g><g fill="#ffffff" fill-opacity="1"><g transform="translate(170.747311, 207.438502)"><g><path d="M 33.109375 -45.78125 L 24.28125 -36.953125 L 15.46875 -45.78125 L 24.28125 -54.59375 Z M 24.28125 -33.421875 L 15.46875 -24.65625 L 6.640625 -33.421875 L 15.46875 -42.234375 Z M 41.859375 -33.421875 L 33.109375 -24.65625 L 24.28125 -33.421875 L 33.109375 -42.234375 Z M 35.21875 -17.578125 L 52.796875 -35.21875 L 52.796875 0 L -0.5625 0 C -1.632812 0 -2.53125 -0.359375 -3.25 -1.078125 C -3.976562 -1.804688 -4.34375 -2.707031 -4.34375 -3.78125 L -4.34375 -13.78125 C -4.34375 -14.863281 -3.976562 -15.765625 -3.25 -16.484375 C -2.53125 -17.210938 -1.632812 -17.578125 -0.5625 -17.578125 Z M 35.21875 -17.578125 "/></g></g></g><g fill="#ffffff" fill-opacity="1"><g transform="translate(223.540311, 207.438502)"><g><path d="M 24.28125 -33.421875 L 15.46875 -24.65625 L 6.640625 -33.421875 L 15.46875 -42.234375 Z M 41.859375 -33.421875 L 33.109375 -24.65625 L 24.28125 -33.421875 L 33.109375 -42.234375 Z M 35.21875 -17.578125 L 52.796875 -35.21875 L 52.796875 0 L -0.5625 0 C -1.632812 0 -2.53125 -0.359375 -3.25 -1.078125 C -3.976562 -1.804688 -4.34375 -2.707031 -4.34375 -3.78125 L -4.34375 -13.78125 C -4.34375 -14.863281 -3.976562 -15.765625 -3.25 -16.484375 C -2.53125 -17.210938 -1.632812 -17.578125 -0.5625 -17.578125 Z M 35.21875 -17.578125 "/></g></g></g><g fill="#ffffff" fill-opacity="1"><g transform="translate(276.333299, 207.438502)"><g><path d="M 38.8125 -17.578125 L 56.453125 -35.21875 L 56.453125 -17.578125 C 56.453125 -15.128906 55.992188 -12.835938 55.078125 -10.703125 C 54.171875 -8.578125 52.910156 -6.71875 51.296875 -5.125 C 49.679688 -3.53125 47.804688 -2.273438 45.671875 -1.359375 C 43.546875 -0.453125 41.257812 0 38.8125 0 L -0.5625 0 C -1.632812 0 -2.53125 -0.359375 -3.25 -1.078125 C -3.976562 -1.804688 -4.34375 -2.707031 -4.34375 -3.78125 L -4.34375 -13.78125 C -4.34375 -14.863281 -3.976562 -15.765625 -3.25 -16.484375 C -2.53125 -17.210938 -1.632812 -17.578125 -0.5625 -17.578125 L 3.609375 -17.578125 L 21.234375 -35.21875 L 21.234375 -17.578125 L 38.8125 -35.21875 Z M 38.8125 -17.578125 "/></g></g></g><g fill="#8728e1" fill-opacity="1"><g transform="translate(334.598786, 207.438502)"><g><path d="M 1.796875 -35.21875 L 19.375 -52.859375 L 19.375 0 L 1.796875 0 Z M 1.796875 -35.21875 "/></g></g></g></svg>